<svg xmlns="http://www.w3.org/2000/svg" width="16" height="16" fill="none" viewBox="0 0 16 16">
  <path fill="#fff" d="M6.182 1.333H1.939a.606.606 0 0 0-.606.606v4.243c0 .335.272.606.606.606h4.243a.606.606 0 0 0 .606-.606V1.939a.606.606 0 0 0-.606-.606Zm7.878 0H9.819a.606.606 0 0 0-.606.606v4.243c0 .335.271.606.606.606h4.243a.606.606 0 0 0 .606-.606V1.939a.606.606 0 0 0-.606-.606ZM6.182 9.212H1.939a.606.606 0 0 0-.606.606v4.243c0 .334.272.606.606.606h4.243a.606.606 0 0 0 .606-.606V9.818a.606.606 0 0 0-.606-.606Zm7.878 0H9.819a.606.606 0 0 0-.606.606v4.243c0 .334.271.606.606.606h4.243a.606.606 0 0 0 .606-.606V9.818a.606.606 0 0 0-.606-.606Z"/>
</svg>
