<svg xmlns="http://www.w3.org/2000/svg" width="16" height="16" fill="none" viewBox="0 0 16 16">
  <g clip-path="url(#a)">
    <path fill="#fff" d="M9.333 1.333h-6.11a.556.556 0 0 0-.556.556V14.11a.556.556 0 0 0 .555.556h10a.556.556 0 0 0 .556-.556V5.778h-3.89a.556.556 0 0 1-.555-.556V1.333Zm-4.722 9.445h7.222a.278.278 0 0 1 .278.277v.556a.278.278 0 0 1-.278.278H4.611a.278.278 0 0 1-.278-.278v-.556a.278.278 0 0 1 .278-.277Zm0-2.778h7.222a.278.278 0 0 1 .278.278v.555a.278.278 0 0 1-.278.278H4.611a.278.278 0 0 1-.278-.278v-.555A.278.278 0 0 1 4.611 8ZM7.39 6.333H4.61a.278.278 0 0 1-.278-.277V5.5a.278.278 0 0 1 .278-.278h2.78a.278.278 0 0 1 .278.278v.556a.278.278 0 0 1-.278.277Z"/>
    <path fill="#fff" d="M13.452 4.667h-3.008V1.659l3.008 3.008Z"/>
  </g>
  <defs>
    <clipPath id="a">
      <rect width="16" height="16" fill="#fff" rx="4"/>
    </clipPath>
  </defs>
</svg>
