<svg xmlns="http://www.w3.org/2000/svg" width="88" height="24" fill="none" viewBox="0 0 88 24">
  <g clip-path="url(#a)">
    <path fill="#fff" d="M36.162 12.1C36.162 5.774 41.44.653 47.958.653h6.674l-2.173 5.372h-4.45c-3.466 0-6.26 2.711-6.26 6.075 0 3.364 2.794 6.076 6.26 6.076h5.122v5.422H48.01c-6.57-.05-11.848-5.171-11.848-11.498Zm-5.225 6.076-4.035-9.841-6.105 15.213h-6L23.538 2.26C24.11.954 25.402 0 26.902 0s2.742.954 3.31 2.26l6.726 16.317c1.035 2.46-.983 4.971-3.259 4.971H23.436l2.173-5.422h5.328v.05Z"/>
    <path fill="#fff" d="M47.959 15.565c1.971 0 3.57-1.551 3.57-3.465 0-1.913-1.599-3.464-3.57-3.464-1.972 0-3.57 1.551-3.57 3.464 0 1.914 1.598 3.465 3.57 3.465Zm4.5-3.465c0-6.326 5.277-11.447 11.795-11.447h6.674l-2.173 5.372h-4.45c-3.465 0-6.259 2.711-6.259 6.075 0 3.364 2.794 6.076 6.26 6.076h5.122v5.422h-5.122c-6.57-.05-11.847-5.171-11.847-11.498Z"/>
    <path fill="#fff" d="M60.685 12.1c0-1.907 1.604-3.464 3.57-3.464 1.966 0 3.57 1.557 3.57 3.464 0 1.908-1.604 3.465-3.57 3.465-1.966 0-3.57-1.557-3.57-3.465ZM0 15.966v-.702h5.536v.703c0 1.456 1.19 2.61 2.69 2.61s2.69-1.154 2.69-2.61V0h5.536v15.966c0 4.419-3.674 8.034-8.278 8.034C3.674 24 0 20.385 0 15.966Zm70.72 7.582v-5.372h9.985c.983 0 1.76-.753 1.76-1.707 0-.954-.777-1.707-1.76-1.707h-3.362c-4.036 0-7.243-3.164-7.243-7.03 0-3.916 3.26-7.029 7.243-7.029h9.726l-2.277 5.322h-7.501c-.931 0-1.707.753-1.707 1.657S76.36 9.34 77.29 9.34h3.363c4.035 0 7.346 3.163 7.346 7.13 0 3.916-3.26 7.13-7.346 7.13H70.72v-.05Z"/>
  </g>
  <defs>
    <clipPath id="a">
      <path fill="#fff" d="M0 0h88v24H0z"/>
    </clipPath>
  </defs>
</svg>
